<svg width="598" height="371" viewBox="0 0 598 371" fill="none" xmlns="http://www.w3.org/2000/svg">
<path d="M333.714 13.4828C330.378 13.474 327.115 14.4527 324.334 16.2953C321.554 18.138 319.381 20.7621 318.09 23.8372C316.812 26.8983 316.484 30.2731 317.149 33.5229C317.814 36.7728 319.441 39.7477 321.819 42.061C324.182 44.4093 327.189 46.005 330.459 46.6466C333.746 47.2989 337.152 46.9696 340.254 45.6999C343.335 44.4335 345.971 42.2818 347.829 39.5168C349.384 37.2388 350.343 34.6069 350.617 31.8623C350.891 29.1176 350.472 26.3482 349.397 23.8077C348.54 21.7719 347.293 19.9228 345.728 18.3642C344.15 16.8096 342.279 15.5829 340.224 14.7549C338.164 13.8886 335.948 13.4556 333.714 13.4828Z" fill="#E5E5E5"/>
<path d="M153.374 140.802C152.158 138.946 150.717 137.247 149.084 135.743C147.723 131.158 146.302 126.661 146.302 126.661C146.287 125.455 146.208 124.25 146.066 123.052C148.374 121.366 150.504 119.443 150.031 118.91C149.557 118.378 147.072 118.91 147.072 118.052C147.072 116.011 149.587 115.094 150.593 114.65C149.965 114.225 149.381 113.739 148.847 113.2C148.403 112.757 145.888 114.177 144.704 113.644L145.563 113.2C146.423 112.311 147.169 111.317 147.782 110.242C146.953 110.242 146.154 110.922 145.119 110.656C143.491 110.272 142.16 108.674 140.976 108.023C140.65 107.875 139.23 108.289 139.201 108.26C139.171 108.23 142.16 106.219 143.343 106.751C142.491 106.09 141.461 105.699 140.384 105.627C139.134 105.509 137.876 105.509 136.626 105.627C136.36 105.627 134.762 106.426 134.584 106.278C134.407 106.13 135.206 105.656 135.265 105.627C135.324 105.597 136.36 102.521 135.946 102.106C135.531 101.692 135.383 103.467 134.851 104.088C133.669 104.967 132.303 105.563 130.856 105.834C128.962 106.307 126.417 105.834 124.642 106.278C121.476 107.313 117.925 107.165 114.67 108.26C113.808 108.629 113.032 109.173 112.391 109.857C108.781 110.536 105.477 112.337 102.952 115.005C98.7204 116.898 96.4419 122.135 94.489 126.01C94.1355 127.071 93.6162 128.07 92.9502 128.969C92.9502 128.969 92.5656 129.412 92.7135 129.412C93.838 129.412 94.844 127.756 95.2287 127.075C95.243 127.193 95.243 127.312 95.2287 127.43C93.0516 130.994 91.895 135.088 91.885 139.264C92.2788 141.938 92.8722 144.578 93.6604 147.163C93.9267 148.642 94.1043 151.098 94.1043 151.098C94.1043 151.098 94.1043 148.82 94.1043 148.672C94.2116 148.334 94.3503 148.007 94.5185 147.695C95.1338 150.112 95.8846 152.493 96.7674 154.825C98.0615 158.862 98.5147 163.121 98.099 167.339L99.6377 164.055C99.6377 164.055 99.6377 164.943 99.6377 165.357C100.027 166.51 100.554 167.613 101.206 168.641C101.591 169.44 101.916 170.268 102.301 171.067C105.082 176.658 101.561 165.86 104.52 171.747C105.053 172.753 106 173.581 106.562 174.706C106.562 174.883 106.858 175.978 107.006 175.8C107.338 175.128 107.568 174.41 107.686 173.67C108.713 175.573 109.09 177.759 108.759 179.895C108.428 182.032 107.407 184.001 105.852 185.504C101.975 189.764 100.821 189.231 92.6839 189.853C84.5465 190.474 63.0932 199.793 55.1037 202.189C47.1142 204.586 36.6983 205.503 34.3902 208.55C32.0821 211.597 27.4364 207.929 29.9812 201.095C32.526 194.261 26.8446 158.908 26.8446 158.908C26.8446 158.908 34.1535 151.009 35.3963 144.116C35.5592 141.312 34.9772 138.516 33.7096 136.01C34.3012 135.265 34.9653 134.581 35.6922 133.968C37.3789 132.667 78.4508 128.377 92.5064 115.301C106.562 102.225 114.196 79.2675 91.7962 59.0912C69.396 38.9148 46.2265 52.2276 35.5738 68.203C25.8681 82.995 27.5843 119.117 27.0813 125.803C24.8916 123.436 22.7019 121.898 21.1631 122.312C16.1623 123.555 4.50356 137.104 5.03619 144.441C5.24022 146.224 5.63709 147.98 6.21983 149.678C4.59234 151.364 4.32603 153.671 5.42089 154.589L8.61669 157.251L8.82382 157.399C9.73961 160.936 9.89091 164.627 9.26767 168.227C7.37386 179.409 -5.794 230.353 2.99445 240.205C11.7829 250.056 31.2536 243.311 31.2536 243.311C31.6253 244.721 32.3299 246.021 33.3082 247.102C34.2865 248.183 35.5099 249.013 36.8758 249.524C41.2552 250.796 59.4535 245.175 64.484 249.524C69.5144 253.873 79.7232 263.902 77.859 291.208C77.5926 295.083 66.3186 311.591 65.7564 315.822C78.51 299.402 135.058 230.856 142.219 176.924C142.219 176.924 136.567 170.061 144.083 168.227C151.599 166.393 153.493 163.878 153.493 155.18C153.31 151.793 152.784 148.433 151.925 145.151C152.871 143.968 154.292 142.37 153.374 140.802ZM35.6922 96.4262C37.6748 105.301 54.7782 119.591 64.0697 119.946C58.1516 123.703 36.3136 124.294 36.3136 124.294C36.3136 124.294 32.9994 102.876 35.6922 96.4262Z" fill="#E5E5E5"/>
<path d="M303.903 69.0912C301.151 67.2274 291.061 74.3867 290.114 70.955C289.167 67.5232 294.494 56.6955 295.145 53.2045C295.796 49.7136 297.305 45.4238 295.47 44.8026C293.635 44.1813 291.061 53.8257 289.552 55.9854C288.043 58.145 288.605 54.1216 289.226 51.6365C289.848 49.1514 292.363 42.0217 289.877 41.4004H289.404C287.125 41.4004 285.468 45.5127 285.468 45.5127C285.468 45.5127 285.794 43.0276 283.575 43.6488C281.355 44.2701 280.438 47.6427 280.172 48.4415C280.172 47.9681 280.349 46.6073 278.248 47.3765C276.147 48.1457 272.33 60.3934 271.324 65.6594C270.495 70.3633 267.152 81.9897 266.323 84.7411C263.867 86.3978 243.893 99.8586 231.524 109.74C218.357 120.301 208.947 134.561 204.538 136.365C199.027 138.952 193.784 142.073 188.884 145.684C175.246 155.977 161.083 165.556 146.451 174.381L147.22 176.718C147.516 245.619 90.8502 307.509 74.4273 324.017C100.23 298.989 190.63 218.579 192.08 217.307C196.489 201.657 199.774 191.569 206.432 186.037C214.628 179.173 232.235 172.31 232.235 172.31C231.741 166.131 229.319 160.264 225.31 155.536C257.357 134.679 252.623 115.449 278.307 92.5513C283.053 88.9098 287.389 84.7635 291.239 80.1852C294.163 77.0235 298 74.8519 302.217 73.9725C305.62 73.1442 306.744 70.955 303.903 69.0912Z" fill="#FF33CC"/>
<path d="M161.867 310.881C163.435 310.615 188.262 306.148 191.783 303.337C191.428 304.018 180.539 324.046 138.106 340.524C133.194 342.447 127.897 344.282 122.127 346.086C101.679 352.417 83.9251 357.387 69.6919 361.204L65.7563 362.239C43.8 368.008 31.1352 370.671 30.2475 370.818L68.7154 349.222L76.6457 344.785L34.7157 353.808C35.5442 353.512 49.511 348.305 73.6867 324.756L74.4273 324.017C100.26 298.989 190.688 218.579 192.109 217.307C191.339 220.088 190.511 223.224 189.623 226.182C184.432 243.833 180.477 261.824 177.787 280.025L210.544 262.097C205.632 273.474 198.727 283.884 190.156 292.835C182.381 301.117 172.655 307.321 161.867 310.881Z" fill="#FF33CC"/>
<path d="M158.139 103.585C158.211 103.474 158.271 103.355 158.316 103.231L158.139 103.585Z" fill="#FF33CC"/>
<path d="M174.472 92.521C176.396 89.5626 195.186 62.3452 236.613 43.4114C253.993 35.3009 272.268 29.2637 291.06 25.4244C291.552 25.3305 291.99 25.0509 292.282 24.6433C292.574 24.2358 292.698 23.7316 292.628 23.2352L291.178 14.005C291.14 13.7981 291.071 13.5984 290.971 13.4132L288.959 2.43757C288.884 1.72532 288.531 1.07121 287.978 0.617098C287.424 0.162991 286.713 -0.0545327 286 0.0116575C187.847 20.3951 160.801 97.4024 158.257 103.23C160.062 99.7691 175.834 70.8359 211.905 48.0561C196.439 60.0813 183.684 75.2327 174.472 92.521Z" fill="#FF33CC"/>
<path d="M260.729 327.97H265.924L267.883 308.701H273.239L273.728 303.739H257.945L257.418 308.686H262.68L260.729 327.97Z" fill="#E5E5E5"/>
<path d="M288.672 310.236H283.557L282.607 319.735C282.344 321.927 281.357 323.586 279.121 323.586C276.885 323.586 276.03 321.949 276.257 319.735L277.214 310.236H272.099L271.047 320.67C270.521 326.092 273.341 328.306 276.761 328.306C277.775 328.333 278.78 328.115 279.691 327.669C280.602 327.224 281.392 326.565 281.993 325.749L281.759 327.941H286.874L288.672 310.236Z" fill="#E5E5E5"/>
<path d="M289.973 327.97H295.088L296.038 318.471C296.301 316.279 297.287 314.613 299.523 314.613C301.759 314.613 302.614 316.249 302.388 318.471L301.43 327.97H306.545L307.598 317.535C308.124 312.113 305.296 309.892 301.876 309.892C300.863 309.866 299.858 310.086 298.947 310.531C298.036 310.976 297.246 311.634 296.644 312.45L296.878 310.257H291.763L289.973 327.97Z" fill="#E5E5E5"/>
<path d="M309.593 327.97H314.708L316.483 310.236H311.368L309.593 327.97ZM311.566 308.358H316.681L317.105 303.754H311.989L311.566 308.358Z" fill="#E5E5E5"/>
<path d="M323.835 328.306C327.678 328.306 330.703 326.114 330.703 322.461C330.703 319.421 328.57 318.127 326.955 317.55L324.624 316.593C323.666 316.249 323.469 315.811 323.469 315.299C323.469 314.51 324.032 314.072 325.018 314.072C325.508 314.061 325.986 314.222 326.371 314.526C326.755 314.83 327.021 315.259 327.123 315.738L331.135 314.583C330.769 311.821 328.336 309.907 325.15 309.907C321.628 309.907 318.537 312.23 318.537 315.606C318.537 317.616 319.626 319.421 322.19 320.378L324.266 321.196C325.347 321.569 325.727 321.978 325.727 322.731C325.727 323.754 324.872 324.192 323.951 324.192C323.349 324.196 322.764 323.99 322.296 323.611C321.828 323.231 321.507 322.7 321.387 322.11L317.309 323.308C317.572 326.604 320.349 328.306 323.835 328.306Z" fill="#E5E5E5"/>
<path d="M332.457 327.97H337.572L339.348 310.236H334.233L332.457 327.97ZM334.43 308.358H339.545L339.976 303.754H334.861L334.43 308.358Z" fill="#E5E5E5"/>
<path d="M347.912 328.306C350.74 328.306 352.808 326.604 353.137 325.954H353.378L353.144 327.97H358.259L360.035 310.236H354.92L354.693 312.245H354.525C354.233 311.602 352.655 309.892 349.564 309.892C344.5 309.892 340.649 314.496 340.649 320.122C340.641 325.479 344.229 328.306 347.912 328.306ZM345.72 319.647C345.68 319.003 345.772 318.357 345.99 317.749C346.208 317.141 346.548 316.584 346.988 316.111C347.428 315.639 347.96 315.261 348.551 315.001C349.142 314.741 349.78 314.604 350.426 314.598C352.165 314.598 354.174 315.621 354.174 318.559C354.213 319.203 354.12 319.848 353.902 320.455C353.683 321.062 353.344 321.618 352.904 322.09C352.463 322.561 351.932 322.938 351.341 323.198C350.751 323.458 350.114 323.595 349.469 323.601C347.744 323.601 345.705 322.578 345.705 319.647H345.72Z" fill="#E5E5E5"/>
<path d="M361.321 327.97H366.436L367.386 318.471C367.649 316.279 368.636 314.613 370.872 314.613C373.108 314.613 373.963 316.249 373.736 318.471L372.779 327.97H377.894L378.954 317.535C379.48 312.113 376.652 309.892 373.232 309.892C372.218 309.866 371.214 310.086 370.303 310.531C369.392 310.976 368.602 311.634 368 312.45L368.234 310.257H363.119L361.321 327.97Z" fill="#E5E5E5"/>
<path d="M388.387 327.97H393.568L394.357 320.466H397.711C403.104 320.466 407.021 316.717 407.021 311.361C407.021 306.618 404.098 303.754 399.392 303.754H390.842L388.387 327.97ZM394.869 315.548L395.6 308.73H398.457C400.466 308.73 401.811 309.549 401.781 311.938C401.781 314.7 399.94 315.548 397.704 315.548H394.869Z" fill="#E5E5E5"/>
<path d="M413.897 328.306C416.725 328.306 418.793 326.604 419.122 325.954H419.356L419.122 327.97H424.237L426.013 310.236H420.897L420.671 312.245H420.503C420.211 311.602 418.632 309.892 415.541 309.892C410.477 309.892 406.634 314.496 406.634 320.122C406.634 325.479 410.214 328.306 413.897 328.306ZM411.705 319.647C411.664 319.003 411.755 318.357 411.972 317.749C412.189 317.142 412.528 316.584 412.968 316.112C413.408 315.639 413.939 315.261 414.53 315.001C415.12 314.741 415.758 314.604 416.403 314.598C418.143 314.598 420.152 315.621 420.152 318.559C420.191 319.203 420.098 319.848 419.88 320.455C419.661 321.062 419.321 321.618 418.881 322.09C418.441 322.561 417.91 322.938 417.319 323.198C416.728 323.458 416.091 323.595 415.446 323.601C413.729 323.601 411.698 322.578 411.698 319.647H411.705Z" fill="#E5E5E5"/>
<path d="M434.606 328.306C437.434 328.306 439.509 326.604 439.838 325.954H440.064L439.838 327.97H444.953L447.364 303.739H442.249L441.358 312.23H441.197C440.897 311.587 439.319 309.877 436.228 309.877C431.164 309.877 427.321 314.481 427.321 320.108C427.342 325.479 430.923 328.306 434.606 328.306ZM432.414 319.647C432.373 319.003 432.464 318.357 432.681 317.749C432.898 317.142 433.237 316.584 433.677 316.112C434.117 315.639 434.648 315.261 435.239 315.001C435.829 314.741 436.467 314.604 437.112 314.598C438.859 314.598 440.861 315.621 440.861 318.559C440.901 319.202 440.809 319.847 440.591 320.454C440.374 321.061 440.035 321.617 439.595 322.089C439.155 322.561 438.624 322.938 438.034 323.198C437.444 323.458 436.807 323.595 436.162 323.601C434.445 323.601 432.406 322.578 432.406 319.647H432.414Z" fill="#E5E5E5"/>
<path d="M456.338 328.306C457.67 328.317 458.989 328.038 460.203 327.491C461.418 326.944 462.5 326.14 463.375 325.135L461.431 322.614C460.21 323.532 458.72 324.022 457.193 324.01C455.001 324.01 453.349 323.06 452.808 321.145H465.004C466.816 313.107 462.016 309.892 457.573 309.892C452.385 309.892 448.073 314.189 448.073 319.852C448.051 325.34 451.931 328.306 456.338 328.306ZM452.955 317.345C453.242 316.459 453.804 315.687 454.559 315.142C455.315 314.597 456.225 314.306 457.156 314.313C458.968 314.313 460.613 315.234 460.81 317.345H452.955Z" fill="#E5E5E5"/>
<path d="M466.707 327.97H471.822L474.233 303.739H469.118L466.707 327.97Z" fill="#E5E5E5"/>
<path d="M494.182 328.306C497.471 328.306 501.219 327.05 504.142 322.855L500.693 320.122C498.983 322.168 497.171 323.191 494.847 323.191C491.325 323.191 488.563 320.634 488.563 316.41C488.563 311.836 491.917 308.533 496.126 308.533C497.23 308.496 498.322 308.763 499.284 309.304C500.247 309.845 501.042 310.64 501.585 311.602L505.567 308.869C503.492 304.675 499.721 303.418 496.491 303.418C494.719 303.437 492.969 303.806 491.34 304.505C489.712 305.203 488.238 306.217 487.003 307.488C485.768 308.759 484.797 310.262 484.145 311.91C483.494 313.557 483.175 315.318 483.207 317.09C483.199 324.01 488.066 328.306 494.182 328.306Z" fill="#E5E5E5"/>
<path d="M506.042 327.97H511.157L512.933 310.236H507.818L506.042 327.97ZM508.015 308.358H513.13L513.561 303.754H508.446L508.015 308.358Z" fill="#E5E5E5"/>
<path d="M514.197 327.97H519.312L520.101 319.932C520.693 316.966 522.637 314.956 525.757 314.956C526.21 314.944 526.663 314.978 527.109 315.058L527.635 310.111C527.242 309.936 526.815 309.854 526.386 309.87C523.163 309.87 521.387 312.296 520.598 315.292L521.088 310.177H515.973L514.197 327.97Z" fill="#E5E5E5"/>
<path d="M536.06 328.306C539.283 328.306 541.848 326.845 543.689 323.922L540.233 321.43C539.81 322.048 539.247 322.559 538.591 322.921C537.935 323.282 537.204 323.485 536.455 323.513C534.351 323.513 532.706 321.942 532.706 319.457C532.68 318.851 532.775 318.246 532.985 317.677C533.196 317.108 533.518 316.587 533.932 316.144C534.346 315.701 534.845 315.345 535.399 315.097C535.952 314.849 536.55 314.714 537.157 314.7C537.88 314.698 538.59 314.889 539.215 315.254C539.839 315.619 540.355 316.144 540.708 316.776L544.654 314.291C544.039 312.93 543.03 311.785 541.757 311.003C540.484 310.222 539.007 309.84 537.515 309.907C536.188 309.911 534.876 310.181 533.655 310.701C532.435 311.221 531.331 311.98 530.408 312.933C529.486 313.887 528.764 315.016 528.285 316.253C527.807 317.49 527.581 318.811 527.621 320.137C527.621 325.515 531.632 328.306 536.06 328.306Z" fill="#E5E5E5"/>
<path d="M563.828 310.236H558.713L557.756 319.735C557.493 321.927 556.506 323.586 554.27 323.586C552.034 323.586 551.179 321.949 551.413 319.735L552.363 310.236H547.248L546.291 320.67C545.765 326.092 548.593 328.306 552.012 328.306C553.025 328.333 554.029 328.115 554.939 327.669C555.849 327.224 556.637 326.565 557.237 325.749L557.01 327.941H562.126L563.828 310.236Z" fill="#E5E5E5"/>
<path d="M565.158 327.97H570.273L572.049 310.236H566.934L565.158 327.97ZM567.131 308.358H572.246L572.67 303.754H567.555L567.131 308.358Z" fill="#E5E5E5"/>
<path d="M580.445 328.175C581.629 328.175 583.141 327.934 583.799 327.254L584.23 323.228C583.698 323.397 583.144 323.488 582.586 323.498C581.037 323.498 580.679 322.548 580.774 321.657L581.505 314.43H585.019L585.451 310.236H581.863L582.323 305.698H577.208L576.747 310.236H574.212L573.788 314.43H576.353L575.527 322.512C575.154 326.567 577.288 328.175 580.445 328.175Z" fill="#E5E5E5"/>
<path d="M363.906 277.255H375.181C377.524 277.254 379.787 276.398 381.545 274.848C383.302 273.298 384.433 271.161 384.726 268.836L387.258 248.588C387.551 246.264 388.682 244.128 390.439 242.579C392.197 241.03 394.46 240.176 396.803 240.177H408.055C439.799 240.177 462.825 221.642 462.825 195.187C463.019 171.762 445.604 157.611 417.927 157.611H376.084C373.734 157.612 371.465 158.472 369.707 160.03C367.948 161.589 366.821 163.737 366.539 166.069L354.353 266.484C354.188 267.835 354.313 269.205 354.718 270.504C355.123 271.803 355.799 273.001 356.702 274.02C357.605 275.038 358.715 275.853 359.956 276.41C361.198 276.968 362.544 277.256 363.906 277.255ZM392.541 204.938L394.372 190.468C394.666 188.145 395.798 186.009 397.555 184.461C399.312 182.912 401.575 182.058 403.917 182.057H412.27C424.083 182.057 432.015 186.099 431.82 197.897C431.82 211.542 420.982 215.755 407.821 215.755H402.086C400.721 215.756 399.371 215.466 398.127 214.905C396.882 214.344 395.772 213.525 394.869 212.501C393.966 211.478 393.291 210.274 392.89 208.97C392.488 207.666 392.37 206.291 392.541 204.938Z" fill="#E5E5E5"/>
<path d="M535.563 278.944C551.825 278.944 569.988 274.544 585.595 260.853C586.708 259.879 587.582 258.661 588.148 257.295C588.714 255.929 588.957 254.451 588.859 252.975C588.761 251.5 588.325 250.066 587.583 248.787C586.841 247.507 585.814 246.416 584.582 245.597L580.149 242.661C578.453 241.521 576.436 240.952 574.394 241.038C572.352 241.123 570.391 241.858 568.796 243.136C560.186 250.145 550.874 253.665 539.436 253.665C518.724 253.665 502.47 241.033 502.47 220.139C502.47 197.554 522.208 181.2 546.986 181.2C558.409 181.2 567.432 184.502 574.453 191.114C575.957 192.535 577.879 193.435 579.935 193.681C581.991 193.926 584.071 193.504 585.868 192.477L593.153 188.279C594.411 187.563 595.49 186.571 596.309 185.378C597.128 184.185 597.667 182.822 597.883 181.391C598.1 179.96 597.99 178.499 597.56 177.117C597.131 175.736 596.394 174.469 595.405 173.412C582.813 160.173 564.97 155.929 549.113 155.929C506.538 155.929 470.921 185.242 470.921 223.495C470.921 257.684 499.564 278.944 535.563 278.944Z" fill="#E5E5E5"/>
<path d="M415 82.9443C394.333 97.9022 372.121 110.648 348.739 120.968C318.601 134.268 290.43 129.05 280.78 128.033C280.183 127.958 279.578 128.075 279.053 128.366C278.529 128.657 278.112 129.107 277.864 129.649L270.532 146.334L265.255 156.884C265 157.445 264.954 158.077 265.126 158.668C265.298 159.259 265.677 159.77 266.195 160.11C266.539 160.339 266.935 160.481 267.347 160.521C279.398 162.556 291.664 163.041 303.841 161.965L291.684 273.25C291.653 273.732 291.725 274.215 291.896 274.668C292.067 275.12 292.332 275.532 292.675 275.876C293.015 276.224 293.428 276.495 293.885 276.67C294.347 276.856 294.844 276.94 295.343 276.915H323.586C324.452 276.943 325.299 276.658 325.97 276.114C326.64 275.57 327.088 274.803 327.23 273.957L342.325 152.396C364.801 142.955 384.255 127.632 398.601 108.072C396.866 109.205 391.232 112.921 382.566 117.915C404.475 100.921 415 82.9443 415 82.9443Z" fill="#E5E5E5"/>
</svg>
